{
    "asset" : {
        "generator" : "Khronos glTF Blender I/O v1.7.33",
        "version" : "2.0"
    },
    "scene" : 0,
    "scenes" : [
        {
            "name" : "Scene",
            "nodes" : [
                0,
                1,
                2,
                3
            ]
        }
    ],
    "nodes" : [
        {
            "mesh" : 0,
            "name" : "Cube",
            "scale" : [
                0.30000001192092896,
                6.1370320320129395,
                0.30000001192092896
            ],
            "translation" : [
                -0.20000000298023224,
                5.996904373168945,
                0
            ]
        },
        {
            "mesh" : 1,
            "name" : "Sphere.001",
            "rotation" : [
                0,
                0,
                0,
                -1
            ],
            "scale" : [
                0.5954422950744629,
                0.5954422950744629,
                0.5954422950744629
            ],
            "translation" : [
                -0.9223923087120056,
                0.08887910842895508,
                0.022918885573744774
            ]
        },
        {
            "mesh" : 2,
            "name" : "Sphere.002",
            "translation" : [
                1.0331828594207764,
                4.176643371582031,
                -0.007967159152030945
            ]
        },
        {
            "mesh" : 3,
            "name" : "Plane",
            "translation" : [
                -0.42671966552734375,
                -0.6794033050537109,
                2.3195812702178955
            ]
        }
    ],
    "animations" : [
        {
            "channels" : [
                {
                    "sampler" : 0,
                    "target" : {
                        "node" : 1,
                        "path" : "translation"
                    }
                },
                {
                    "sampler" : 1,
                    "target" : {
                        "node" : 1,
                        "path" : "rotation"
                    }
                },
                {
                    "sampler" : 2,
                    "target" : {
                        "node" : 1,
                        "path" : "scale"
                    }
                }
            ],
            "name" : "Sphere.001Action",
            "samplers" : [
                {
                    "input" : 24,
                    "interpolation" : "LINEAR",
                    "output" : 25
                },
                {
                    "input" : 26,
                    "interpolation" : "LINEAR",
                    "output" : 27
                },
                {
                    "input" : 26,
                    "interpolation" : "LINEAR",
                    "output" : 28
                }
            ]
        }
    ],
    "materials" : [
        {
            "doubleSided" : true,
            "name" : "Material",
            "pbrMetallicRoughness" : {
                "baseColorFactor" : [
                    0.07323593646287918,
                    0.07323593646287918,
                    0.07323593646287918,
                    1
                ],
                "metallicFactor" : 0,
                "roughnessFactor" : 0.9100719690322876
            }
        },
        {
            "doubleSided" : true,
            "name" : "Material.002",
            "pbrMetallicRoughness" : {
                "baseColorFactor" : [
                    0.040066227316856384,
                    0.0764925554394722,
                    0.8000000715255737,
                    1
                ],
                "metallicFactor" : 0,
                "roughnessFactor" : 0.5
            }
        },
        {
            "doubleSided" : true,
            "name" : "Material.003",
            "pbrMetallicRoughness" : {
                "baseColorFactor" : [
                    0.5785714983940125,
                    0.5010203123092651,
                    0.4857493042945862,
                    1
                ],
                "metallicFactor" : 0,
                "roughnessFactor" : 0.5
            }
        },
        {
            "doubleSided" : true,
            "name" : "Material.004",
            "pbrMetallicRoughness" : {
                "baseColorFactor" : [
                    0.39728838205337524,
                    0.7939240336418152,
                    0.18649430572986603,
                    1
                ],
                "metallicFactor" : 0,
                "roughnessFactor" : 0.4000000059604645
            }
        },
        {
            "doubleSided" : true,
            "name" : "Material.005",
            "pbrMetallicRoughness" : {
                "baseColorFactor" : [
                    0.4283190667629242,
                    0.0296696238219738,
                    0.17537863552570343,
                    1
                ],
                "metallicFactor" : 0,
                "roughnessFactor" : 0.4000000059604645
            }
        }
    ],
    "meshes" : [
        {
            "name" : "Cube",
            "primitives" : [
                {
                    "attributes" : {
                        "POSITION" : 0,
                        "NORMAL" : 1,
                        "TEXCOORD_0" : 2
                    },
                    "indices" : 3,
                    "material" : 0
                }
            ]
        },
        {
            "name" : "Sphere.001",
            "primitives" : [
                {
                    "attributes" : {
                        "POSITION" : 4,
                        "NORMAL" : 5,
                        "TEXCOORD_0" : 6
                    },
                    "indices" : 7,
                    "material" : 1
                },
                {
                    "attributes" : {
                        "POSITION" : 8,
                        "NORMAL" : 9,
                        "TEXCOORD_0" : 10
                    },
                    "indices" : 11,
                    "material" : 2
                }
            ]
        },
        {
            "name" : "Sphere.002",
            "primitives" : [
                {
                    "attributes" : {
                        "POSITION" : 12,
                        "NORMAL" : 13,
                        "TEXCOORD_0" : 14
                    },
                    "indices" : 15,
                    "material" : 3
                }
            ]
        },
        {
            "name" : "Plane",
            "primitives" : [
                {
                    "attributes" : {
                        "POSITION" : 16,
                        "NORMAL" : 17,
                        "TEXCOORD_0" : 18
                    },
                    "indices" : 19,
                    "material" : 4
                },
                {
                    "attributes" : {
                        "POSITION" : 20,
                        "NORMAL" : 21,
                        "TEXCOORD_0" : 22
                    },
                    "indices" : 23,
                    "material" : 0
                }
            ]
        }
    ],
    "accessors" : [
        {
            "bufferView" : 0,
            "componentType" : 5126,
            "count" : 24,
            "max" : [
                1,
                1,
                1
            ],
            "min" : [
                -1,
                -1,
                -1
            ],
            "type" : "VEC3"
        },
        {
            "bufferView" : 1,
            "componentType" : 5126,
            "count" : 24,
            "type" : "VEC3"
        },
        {
            "bufferView" : 2,
            "componentType" : 5126,
            "count" : 24,
            "type" : "VEC2"
        },
        {
            "bufferView" : 3,
            "componentType" : 5123,
            "count" : 36,
            "type" : "SCALAR"
        },
        {
            "bufferView" : 4,
            "componentType" : 5126,
            "count" : 2176,
            "max" : [
                0.6198954582214355,
                2.6311206817626953,
                0.9999999403953552
            ],
            "min" : [
                -1.3801043033599854,
                -2.368880271911621,
                -0.9999999403953552
            ],
            "type" : "VEC3"
        },
        {
            "bufferView" : 5,
            "componentType" : 5126,
            "count" : 2176,
            "type" : "VEC3"
        },
        {
            "bufferView" : 6,
            "componentType" : 5126,
            "count" : 2176,
            "type" : "VEC2"
        },
        {
            "bufferView" : 7,
            "componentType" : 5123,
            "count" : 3252,
            "type" : "SCALAR"
        },
        {
            "bufferView" : 8,
            "componentType" : 5126,
            "count" : 48,
            "max" : [
                1.9460554122924805,
                1.8792924880981445,
                0.6775351166725159
            ],
            "min" : [
                0.5909852981567383,
                -2.730360984802246,
                -0.6775349974632263
            ],
            "type" : "VEC3"
        },
        {
            "bufferView" : 9,
            "componentType" : 5126,
            "count" : 48,
            "type" : "VEC3"
        },
        {
            "bufferView" : 10,
            "componentType" : 5126,
            "count" : 48,
            "type" : "VEC2"
        },
        {
            "bufferView" : 11,
            "componentType" : 5123,
            "count" : 72,
            "type" : "SCALAR"
        },
        {
            "bufferView" : 12,
            "componentType" : 5126,
            "count" : 1152,
            "max" : [
                0.9999997019767761,
                1,
                0.9999994039535522
            ],
            "min" : [
                -0.9999990463256836,
                -4.935225009918213,
                -0.9999987483024597
            ],
            "type" : "VEC3"
        },
        {
            "bufferView" : 13,
            "componentType" : 5126,
            "count" : 1152,
            "type" : "VEC3"
        },
        {
            "bufferView" : 14,
            "componentType" : 5126,
            "count" : 1152,
            "type" : "VEC2"
        },
        {
            "bufferView" : 15,
            "componentType" : 5123,
            "count" : 1722,
            "type" : "SCALAR"
        },
        {
            "bufferView" : 16,
            "componentType" : 5126,
            "count" : 26,
            "max" : [
                1,
                4.5449724197387695,
                1
            ],
            "min" : [
                -1,
                0,
                -1
            ],
            "type" : "VEC3"
        },
        {
            "bufferView" : 17,
            "componentType" : 5126,
            "count" : 26,
            "type" : "VEC3"
        },
        {
            "bufferView" : 18,
            "componentType" : 5126,
            "count" : 26,
            "type" : "VEC2"
        },
        {
            "bufferView" : 19,
            "componentType" : 5123,
            "count" : 36,
            "type" : "SCALAR"
        },
        {
            "bufferView" : 20,
            "componentType" : 5126,
            "count" : 8,
            "max" : [
                1,
                4.5449724197387695,
                1
            ],
            "min" : [
                -1,
                2.9225661754608154,
                -1
            ],
            "type" : "VEC3"
        },
        {
            "bufferView" : 21,
            "componentType" : 5126,
            "count" : 8,
            "type" : "VEC3"
        },
        {
            "bufferView" : 22,
            "componentType" : 5126,
            "count" : 8,
            "type" : "VEC2"
        },
        {
            "bufferView" : 23,
            "componentType" : 5123,
            "count" : 12,
            "type" : "SCALAR"
        },
        {
            "bufferView" : 24,
            "componentType" : 5126,
            "count" : 60,
            "max" : [
                2.5
            ],
            "min" : [
                0.041666666666666664
            ],
            "type" : "SCALAR"
        },
        {
            "bufferView" : 25,
            "componentType" : 5126,
            "count" : 60,
            "type" : "VEC3"
        },
        {
            "bufferView" : 26,
            "componentType" : 5126,
            "count" : 2,
            "max" : [
                2.5
            ],
            "min" : [
                1.6666666666666667
            ],
            "type" : "SCALAR"
        },
        {
            "bufferView" : 27,
            "componentType" : 5126,
            "count" : 2,
            "type" : "VEC4"
        },
        {
            "bufferView" : 28,
            "componentType" : 5126,
            "count" : 2,
            "type" : "VEC3"
        }
    ],
    "bufferViews" : [
        {
            "buffer" : 0,
            "byteLength" : 288,
            "byteOffset" : 0
        },
        {
            "buffer" : 0,
            "byteLength" : 288,
            "byteOffset" : 288
        },
        {
            "buffer" : 0,
            "byteLength" : 192,
            "byteOffset" : 576
        },
        {
            "buffer" : 0,
            "byteLength" : 72,
            "byteOffset" : 768
        },
        {
            "buffer" : 0,
            "byteLength" : 26112,
            "byteOffset" : 840
        },
        {
            "buffer" : 0,
            "byteLength" : 26112,
            "byteOffset" : 26952
        },
        {
            "buffer" : 0,
            "byteLength" : 17408,
            "byteOffset" : 53064
        },
        {
            "buffer" : 0,
            "byteLength" : 6504,
            "byteOffset" : 70472
        },
        {
            "buffer" : 0,
            "byteLength" : 576,
            "byteOffset" : 76976
        },
        {
            "buffer" : 0,
            "byteLength" : 576,
            "byteOffset" : 77552
        },
        {
            "buffer" : 0,
            "byteLength" : 384,
            "byteOffset" : 78128
        },
        {
            "buffer" : 0,
            "byteLength" : 144,
            "byteOffset" : 78512
        },
        {
            "buffer" : 0,
            "byteLength" : 13824,
            "byteOffset" : 78656
        },
        {
            "buffer" : 0,
            "byteLength" : 13824,
            "byteOffset" : 92480
        },
        {
            "buffer" : 0,
            "byteLength" : 9216,
            "byteOffset" : 106304
        },
        {
            "buffer" : 0,
            "byteLength" : 3444,
            "byteOffset" : 115520
        },
        {
            "buffer" : 0,
            "byteLength" : 312,
            "byteOffset" : 118964
        },
        {
            "buffer" : 0,
            "byteLength" : 312,
            "byteOffset" : 119276
        },
        {
            "buffer" : 0,
            "byteLength" : 208,
            "byteOffset" : 119588
        },
        {
            "buffer" : 0,
            "byteLength" : 72,
            "byteOffset" : 119796
        },
        {
            "buffer" : 0,
            "byteLength" : 96,
            "byteOffset" : 119868
        },
        {
            "buffer" : 0,
            "byteLength" : 96,
            "byteOffset" : 119964
        },
        {
            "buffer" : 0,
            "byteLength" : 64,
            "byteOffset" : 120060
        },
        {
            "buffer" : 0,
            "byteLength" : 24,
            "byteOffset" : 120124
        },
        {
            "buffer" : 0,
            "byteLength" : 240,
            "byteOffset" : 120148
        },
        {
            "buffer" : 0,
            "byteLength" : 720,
            "byteOffset" : 120388
        },
        {
            "buffer" : 0,
            "byteLength" : 8,
            "byteOffset" : 121108
        },
        {
            "buffer" : 0,
            "byteLength" : 32,
            "byteOffset" : 121116
        },
        {
            "buffer" : 0,
            "byteLength" : 24,
            "byteOffset" : 121148
        }
    ],
    "buffers" : [
        {
            "byteLength" : 121172,
            "uri" : "data:application/octet-stream;base64,"
        }
    ]
}
