{
    "asset" : {
        "generator" : "Khronos glTF Blender I/O v1.7.33",
        "version" : "2.0"
    },
    "scene" : 0,
    "scenes" : [
        {
            "name" : "Scene",
            "nodes" : [
                0,
                1,
                2,
                3,
                4
            ]
        }
    ],
    "nodes" : [
        {
            "mesh" : 0,
            "name" : "Cube.001",
            "scale" : [
                0.19710540771484375,
                0.09030403941869736,
                0.19710540771484375
            ],
            "translation" : [
                0,
                -0.06792523711919785,
                0
            ]
        },
        {
            "mesh" : 1,
            "name" : "Cube.002",
            "scale" : [
                0.23207104206085205,
                0.8828632831573486,
                0.23207104206085205
            ],
            "translation" : [
                0.5026863813400269,
                0.614180326461792,
                -0.5217406749725342
            ]
        },
        {
            "mesh" : 2,
            "name" : "Cube.003",
            "scale" : [
                0.2903742790222168,
                0.21601428091526031,
                0.2903742790222168
            ],
            "translation" : [
                0.5601539611816406,
                0.1669197380542755,
                0.5864128470420837
            ]
        },
        {
            "mesh" : 3,
            "name" : "Cube.004",
            "rotation" : [
                0,
                -0.36060017347335815,
                0,
                0.9327204823493958
            ],
            "scale" : [
                0.2724875211715698,
                0.9644502997398376,
                0.19784241914749146
            ],
            "translation" : [
                -0.6136056780815125,
                0.5929502248764038,
                -0.5978015661239624
            ]
        },
        {
            "mesh" : 4,
            "name" : "Cube.005",
            "scale" : [
                0.2901935577392578,
                0.2901935577392578,
                0.2901935577392578
            ],
            "translation" : [
                -0.6287109851837158,
                0.2275235503911972,
                0.5348270535469055
            ]
        }
    ],
    "materials" : [
        {
            "doubleSided" : true,
            "name" : "Material.001",
            "pbrMetallicRoughness" : {
                "baseColorFactor" : [
                    0.0352177694439888,
                    0.0352177694439888,
                    0.0352177694439888,
                    1
                ],
                "metallicFactor" : 0,
                "roughnessFactor" : 0.735714316368103
            }
        },
        {
            "doubleSided" : true,
            "name" : "Material.002",
            "pbrMetallicRoughness" : {
                "baseColorFactor" : [
                    0.08353138715028763,
                    0.08353138715028763,
                    0.08353138715028763,
                    1
                ],
                "metallicFactor" : 0.24285714328289032,
                "roughnessFactor" : 0.4000000059604645
            }
        },
        {
            "doubleSided" : true,
            "name" : "Material.004",
            "pbrMetallicRoughness" : {
                "baseColorFactor" : [
                    0.800000011920929,
                    0.800000011920929,
                    0.800000011920929,
                    1
                ],
                "metallicFactor" : 0,
                "roughnessFactor" : 0.6000000238418579
            }
        },
        {
            "doubleSided" : true,
            "name" : "Material.003",
            "pbrMetallicRoughness" : {
                "baseColorFactor" : [
                    0.7479808926582336,
                    0.7954687476158142,
                    0.2844151258468628,
                    1
                ],
                "metallicFactor" : 0,
                "roughnessFactor" : 0.735714316368103
            }
        },
        {
            "doubleSided" : true,
            "name" : "Material.005",
            "pbrMetallicRoughness" : {
                "baseColorFactor" : [
                    0.29569217562675476,
                    0.29569217562675476,
                    0.29569217562675476,
                    1
                ],
                "metallicFactor" : 0.20000000298023224,
                "roughnessFactor" : 0.15714286267757416
            }
        },
        {
            "doubleSided" : true,
            "name" : "Material.006",
            "pbrMetallicRoughness" : {
                "baseColorFactor" : [
                    0.7970845103263855,
                    0.02906486578285694,
                    0.012923259288072586,
                    1
                ],
                "metallicFactor" : 0,
                "roughnessFactor" : 0.8428571224212646
            }
        }
    ],
    "meshes" : [
        {
            "name" : "Cube.001",
            "primitives" : [
                {
                    "attributes" : {
                        "POSITION" : 0,
                        "NORMAL" : 1,
                        "TEXCOORD_0" : 2
                    },
                    "indices" : 3,
                    "material" : 0
                }
            ]
        },
        {
            "name" : "Cube.002",
            "primitives" : [
                {
                    "attributes" : {
                        "POSITION" : 4,
                        "NORMAL" : 5,
                        "TEXCOORD_0" : 6
                    },
                    "indices" : 7,
                    "material" : 1
                },
                {
                    "attributes" : {
                        "POSITION" : 8,
                        "NORMAL" : 9,
                        "TEXCOORD_0" : 10
                    },
                    "indices" : 11,
                    "material" : 2
                }
            ]
        },
        {
            "name" : "Cube.003",
            "primitives" : [
                {
                    "attributes" : {
                        "POSITION" : 12,
                        "NORMAL" : 13,
                        "TEXCOORD_0" : 14
                    },
                    "indices" : 15,
                    "material" : 3
                },
                {
                    "attributes" : {
                        "POSITION" : 16,
                        "NORMAL" : 17,
                        "TEXCOORD_0" : 18
                    },
                    "indices" : 19,
                    "material" : 2
                }
            ]
        },
        {
            "name" : "Cube.004",
            "primitives" : [
                {
                    "attributes" : {
                        "POSITION" : 20,
                        "NORMAL" : 21,
                        "TEXCOORD_0" : 22
                    },
                    "indices" : 23,
                    "material" : 4
                }
            ]
        },
        {
            "name" : "Cube.006",
            "primitives" : [
                {
                    "attributes" : {
                        "POSITION" : 24,
                        "NORMAL" : 25,
                        "TEXCOORD_0" : 26
                    },
                    "indices" : 27,
                    "material" : 5
                }
            ]
        }
    ],
    "accessors" : [
        {
            "bufferView" : 0,
            "componentType" : 5126,
            "count" : 76,
            "max" : [
                5.064812660217285,
                1,
                5.06500768661499
            ],
            "min" : [
                -5.064812660217285,
                -1,
                -5.064812660217285
            ],
            "type" : "VEC3"
        },
        {
            "bufferView" : 1,
            "componentType" : 5126,
            "count" : 76,
            "type" : "VEC3"
        },
        {
            "bufferView" : 2,
            "componentType" : 5126,
            "count" : 76,
            "type" : "VEC2"
        },
        {
            "bufferView" : 3,
            "componentType" : 5123,
            "count" : 132,
            "type" : "SCALAR"
        },
        {
            "bufferView" : 4,
            "componentType" : 5126,
            "count" : 78,
            "max" : [
                1,
                1.0373934507369995,
                1
            ],
            "min" : [
                -1,
                -1,
                -1
            ],
            "type" : "VEC3"
        },
        {
            "bufferView" : 5,
            "componentType" : 5126,
            "count" : 78,
            "type" : "VEC3"
        },
        {
            "bufferView" : 6,
            "componentType" : 5126,
            "count" : 78,
            "type" : "VEC2"
        },
        {
            "bufferView" : 7,
            "componentType" : 5123,
            "count" : 126,
            "type" : "SCALAR"
        },
        {
            "bufferView" : 8,
            "componentType" : 5126,
            "count" : 16,
            "max" : [
                0.8219343423843384,
                0.9511207342147827,
                0.8219344019889832
            ],
            "min" : [
                -0.8219343423843384,
                0.9511206150054932,
                -0.8219342827796936
            ],
            "type" : "VEC3"
        },
        {
            "bufferView" : 9,
            "componentType" : 5126,
            "count" : 16,
            "type" : "VEC3"
        },
        {
            "bufferView" : 10,
            "componentType" : 5126,
            "count" : 16,
            "type" : "VEC2"
        },
        {
            "bufferView" : 11,
            "componentType" : 5123,
            "count" : 24,
            "type" : "SCALAR"
        },
        {
            "bufferView" : 12,
            "componentType" : 5126,
            "count" : 204,
            "max" : [
                1,
                4.562619209289551,
                1
            ],
            "min" : [
                -1,
                -1,
                -1
            ],
            "type" : "VEC3"
        },
        {
            "bufferView" : 13,
            "componentType" : 5126,
            "count" : 204,
            "type" : "VEC3"
        },
        {
            "bufferView" : 14,
            "componentType" : 5126,
            "count" : 204,
            "type" : "VEC2"
        },
        {
            "bufferView" : 15,
            "componentType" : 5123,
            "count" : 426,
            "type" : "SCALAR"
        },
        {
            "bufferView" : 16,
            "componentType" : 5126,
            "count" : 18,
            "max" : [
                0.7692993879318237,
                4.427985191345215,
                0.7744951844215393
            ],
            "min" : [
                -0.7692993879318237,
                4.427985191345215,
                -0.7641035914421082
            ],
            "type" : "VEC3"
        },
        {
            "bufferView" : 17,
            "componentType" : 5126,
            "count" : 18,
            "type" : "VEC3"
        },
        {
            "bufferView" : 18,
            "componentType" : 5126,
            "count" : 18,
            "type" : "VEC2"
        },
        {
            "bufferView" : 19,
            "componentType" : 5123,
            "count" : 48,
            "type" : "SCALAR"
        },
        {
            "bufferView" : 20,
            "componentType" : 5126,
            "count" : 96,
            "max" : [
                1,
                1.259847640991211,
                1.000000238418579
            ],
            "min" : [
                -1,
                -1,
                -1.3177285194396973
            ],
            "type" : "VEC3"
        },
        {
            "bufferView" : 21,
            "componentType" : 5126,
            "count" : 96,
            "type" : "VEC3"
        },
        {
            "bufferView" : 22,
            "componentType" : 5126,
            "count" : 96,
            "type" : "VEC2"
        },
        {
            "bufferView" : 23,
            "componentType" : 5123,
            "count" : 144,
            "type" : "SCALAR"
        },
        {
            "bufferView" : 24,
            "componentType" : 5126,
            "count" : 68,
            "max" : [
                1,
                1.5772403478622437,
                1
            ],
            "min" : [
                -1,
                -1,
                -1
            ],
            "type" : "VEC3"
        },
        {
            "bufferView" : 25,
            "componentType" : 5126,
            "count" : 68,
            "type" : "VEC3"
        },
        {
            "bufferView" : 26,
            "componentType" : 5126,
            "count" : 68,
            "type" : "VEC2"
        },
        {
            "bufferView" : 27,
            "componentType" : 5123,
            "count" : 108,
            "type" : "SCALAR"
        }
    ],
    "bufferViews" : [
        {
            "buffer" : 0,
            "byteLength" : 912,
            "byteOffset" : 0
        },
        {
            "buffer" : 0,
            "byteLength" : 912,
            "byteOffset" : 912
        },
        {
            "buffer" : 0,
            "byteLength" : 608,
            "byteOffset" : 1824
        },
        {
            "buffer" : 0,
            "byteLength" : 264,
            "byteOffset" : 2432
        },
        {
            "buffer" : 0,
            "byteLength" : 936,
            "byteOffset" : 2696
        },
        {
            "buffer" : 0,
            "byteLength" : 936,
            "byteOffset" : 3632
        },
        {
            "buffer" : 0,
            "byteLength" : 624,
            "byteOffset" : 4568
        },
        {
            "buffer" : 0,
            "byteLength" : 252,
            "byteOffset" : 5192
        },
        {
            "buffer" : 0,
            "byteLength" : 192,
            "byteOffset" : 5444
        },
        {
            "buffer" : 0,
            "byteLength" : 192,
            "byteOffset" : 5636
        },
        {
            "buffer" : 0,
            "byteLength" : 128,
            "byteOffset" : 5828
        },
        {
            "buffer" : 0,
            "byteLength" : 48,
            "byteOffset" : 5956
        },
        {
            "buffer" : 0,
            "byteLength" : 2448,
            "byteOffset" : 6004
        },
        {
            "buffer" : 0,
            "byteLength" : 2448,
            "byteOffset" : 8452
        },
        {
            "buffer" : 0,
            "byteLength" : 1632,
            "byteOffset" : 10900
        },
        {
            "buffer" : 0,
            "byteLength" : 852,
            "byteOffset" : 12532
        },
        {
            "buffer" : 0,
            "byteLength" : 216,
            "byteOffset" : 13384
        },
        {
            "buffer" : 0,
            "byteLength" : 216,
            "byteOffset" : 13600
        },
        {
            "buffer" : 0,
            "byteLength" : 144,
            "byteOffset" : 13816
        },
        {
            "buffer" : 0,
            "byteLength" : 96,
            "byteOffset" : 13960
        },
        {
            "buffer" : 0,
            "byteLength" : 1152,
            "byteOffset" : 14056
        },
        {
            "buffer" : 0,
            "byteLength" : 1152,
            "byteOffset" : 15208
        },
        {
            "buffer" : 0,
            "byteLength" : 768,
            "byteOffset" : 16360
        },
        {
            "buffer" : 0,
            "byteLength" : 288,
            "byteOffset" : 17128
        },
        {
            "buffer" : 0,
            "byteLength" : 816,
            "byteOffset" : 17416
        },
        {
            "buffer" : 0,
            "byteLength" : 816,
            "byteOffset" : 18232
        },
        {
            "buffer" : 0,
            "byteLength" : 544,
            "byteOffset" : 19048
        },
        {
            "buffer" : 0,
            "byteLength" : 216,
            "byteOffset" : 19592
        }
    ],
    "buffers" : [
        {
            "byteLength" : 19808,
            "uri" : "data:application/octet-stream;base64,"
        }
    ]
}
