{
    "asset" : {
        "generator" : "Khronos glTF Blender I/O v1.7.33",
        "version" : "2.0"
    },
    "scene" : 0,
    "scenes" : [
        {
            "name" : "Scene",
            "nodes" : [
                0,
                1,
                2,
                3
            ]
        }
    ],
    "nodes" : [
        {
            "mesh" : 0,
            "name" : "Cube",
            "scale" : [
                0.4030555784702301,
                0.4097709059715271,
                0.65196293592453
            ],
            "translation" : [
                -0.2917965054512024,
                0.36616310477256775,
                0
            ]
        },
        {
            "mesh" : 1,
            "name" : "Plane",
            "scale" : [
                0.030326426029205322,
                0.030326426029205322,
                0.030326426029205322
            ],
            "translation" : [
                -0.31059011816978455,
                1.782534122467041,
                0.394711971282959
            ]
        },
        {
            "name" : "Wind",
            "rotation" : [
                -0.21635311841964722,
                0.6308228373527527,
                -0.6826394200325012,
                0.2987595796585083
            ],
            "scale" : [
                3.002924680709839,
                3.002924919128418,
                3.002925157546997
            ],
            "translation" : [
                -0.386229008436203,
                3.592097043991089,
                3.0531013011932373
            ]
        },
        {
            "mesh" : 2,
            "name" : "SmokePart",
            "scale" : [
                0.7293165922164917,
                0.7293165922164917,
                0.7293165922164917
            ],
            "translation" : [
                0.2748284339904785,
                -0.6116464138031006,
                -0.5958309173583984
            ]
        }
    ],
    "animations" : [
        {
            "channels" : [
                {
                    "sampler" : 0,
                    "target" : {
                        "node" : 1,
                        "path" : "translation"
                    }
                },
                {
                    "sampler" : 1,
                    "target" : {
                        "node" : 1,
                        "path" : "rotation"
                    }
                },
                {
                    "sampler" : 2,
                    "target" : {
                        "node" : 1,
                        "path" : "scale"
                    }
                }
            ],
            "name" : "PlaneAction",
            "samplers" : [
                {
                    "input" : 19,
                    "interpolation" : "LINEAR",
                    "output" : 20
                },
                {
                    "input" : 19,
                    "interpolation" : "LINEAR",
                    "output" : 21
                },
                {
                    "input" : 19,
                    "interpolation" : "LINEAR",
                    "output" : 22
                }
            ]
        }
    ],
    "materials" : [
        {
            "doubleSided" : true,
            "name" : "Material.001",
            "pbrMetallicRoughness" : {
                "baseColorFactor" : [
                    0.7943472266197205,
                    0.14413730800151825,
                    0.10534922778606415,
                    1
                ],
                "metallicFactor" : 0,
                "roughnessFactor" : 0.4000000059604645
            }
        },
        {
            "doubleSided" : true,
            "name" : "Material.002",
            "pbrMetallicRoughness" : {
                "baseColorFactor" : [
                    0.017387710511684418,
                    0.011726267635822296,
                    0.016885098069906235,
                    1
                ],
                "metallicFactor" : 0,
                "roughnessFactor" : 0.8782608509063721
            }
        },
        {
            "doubleSided" : true,
            "name" : "Material.003",
            "pbrMetallicRoughness" : {
                "baseColorFactor" : [
                    0.7981029152870178,
                    0.2534525692462921,
                    0.04747216776013374,
                    1
                ],
                "metallicFactor" : 0,
                "roughnessFactor" : 0.6246376633644104
            }
        },
        {
            "alphaMode" : "BLEND",
            "doubleSided" : true,
            "name" : "Material.006",
            "pbrMetallicRoughness" : {}
        }
    ],
    "meshes" : [
        {
            "name" : "Cube.001",
            "primitives" : [
                {
                    "attributes" : {
                        "POSITION" : 0,
                        "NORMAL" : 1,
                        "TEXCOORD_0" : 2
                    },
                    "indices" : 3,
                    "material" : 0
                },
                {
                    "attributes" : {
                        "POSITION" : 4,
                        "NORMAL" : 5,
                        "TEXCOORD_0" : 6
                    },
                    "indices" : 7,
                    "material" : 1
                },
                {
                    "attributes" : {
                        "POSITION" : 8,
                        "NORMAL" : 9,
                        "TEXCOORD_0" : 10
                    },
                    "indices" : 11,
                    "material" : 2
                }
            ]
        },
        {
            "name" : "Plane",
            "primitives" : [
                {
                    "attributes" : {
                        "POSITION" : 12,
                        "NORMAL" : 13,
                        "TEXCOORD_0" : 14
                    },
                    "indices" : 15
                }
            ]
        },
        {
            "name" : "Plane.001",
            "primitives" : [
                {
                    "attributes" : {
                        "POSITION" : 16,
                        "NORMAL" : 17,
                        "TEXCOORD_0" : 18
                    },
                    "indices" : 15,
                    "material" : 3
                }
            ]
        }
    ],
    "accessors" : [
        {
            "bufferView" : 0,
            "componentType" : 5126,
            "count" : 47,
            "max" : [
                2.433258533477783,
                1.516258716583252,
                1
            ],
            "min" : [
                -1,
                -1,
                -1
            ],
            "type" : "VEC3"
        },
        {
            "bufferView" : 1,
            "componentType" : 5126,
            "count" : 47,
            "type" : "VEC3"
        },
        {
            "bufferView" : 2,
            "componentType" : 5126,
            "count" : 47,
            "type" : "VEC2"
        },
        {
            "bufferView" : 3,
            "componentType" : 5123,
            "count" : 99,
            "type" : "SCALAR"
        },
        {
            "bufferView" : 4,
            "componentType" : 5126,
            "count" : 21,
            "max" : [
                2.433258533477783,
                1.516258716583252,
                1
            ],
            "min" : [
                -1,
                0,
                -1
            ],
            "type" : "VEC3"
        },
        {
            "bufferView" : 5,
            "componentType" : 5126,
            "count" : 21,
            "type" : "VEC3"
        },
        {
            "bufferView" : 6,
            "componentType" : 5126,
            "count" : 21,
            "type" : "VEC2"
        },
        {
            "bufferView" : 7,
            "componentType" : 5123,
            "count" : 51,
            "type" : "SCALAR"
        },
        {
            "bufferView" : 8,
            "componentType" : 5126,
            "count" : 52,
            "max" : [
                0.24744105339050293,
                3.200009346008301,
                0.7872022986412048
            ],
            "min" : [
                -0.33542323112487793,
                1.3598785400390625,
                0.42686474323272705
            ],
            "type" : "VEC3"
        },
        {
            "bufferView" : 9,
            "componentType" : 5126,
            "count" : 52,
            "type" : "VEC3"
        },
        {
            "bufferView" : 10,
            "componentType" : 5126,
            "count" : 52,
            "type" : "VEC2"
        },
        {
            "bufferView" : 11,
            "componentType" : 5123,
            "count" : 180,
            "type" : "SCALAR"
        },
        {
            "bufferView" : 12,
            "componentType" : 5126,
            "count" : 4,
            "max" : [
                1,
                0,
                1
            ],
            "min" : [
                -1,
                0,
                -1
            ],
            "type" : "VEC3"
        },
        {
            "bufferView" : 13,
            "componentType" : 5126,
            "count" : 4,
            "type" : "VEC3"
        },
        {
            "bufferView" : 14,
            "componentType" : 5126,
            "count" : 4,
            "type" : "VEC2"
        },
        {
            "bufferView" : 15,
            "componentType" : 5123,
            "count" : 6,
            "type" : "SCALAR"
        },
        {
            "bufferView" : 16,
            "componentType" : 5126,
            "count" : 4,
            "max" : [
                1,
                0,
                1
            ],
            "min" : [
                -1,
                0,
                -1
            ],
            "type" : "VEC3"
        },
        {
            "bufferView" : 17,
            "componentType" : 5126,
            "count" : 4,
            "type" : "VEC3"
        },
        {
            "bufferView" : 18,
            "componentType" : 5126,
            "count" : 4,
            "type" : "VEC2"
        },
        {
            "bufferView" : 19,
            "componentType" : 5126,
            "count" : 2,
            "max" : [
                4.125
            ],
            "min" : [
                0
            ],
            "type" : "SCALAR"
        },
        {
            "bufferView" : 20,
            "componentType" : 5126,
            "count" : 2,
            "type" : "VEC3"
        },
        {
            "bufferView" : 21,
            "componentType" : 5126,
            "count" : 2,
            "type" : "VEC4"
        },
        {
            "bufferView" : 22,
            "componentType" : 5126,
            "count" : 2,
            "type" : "VEC3"
        }
    ],
    "bufferViews" : [
        {
            "buffer" : 0,
            "byteLength" : 564,
            "byteOffset" : 0
        },
        {
            "buffer" : 0,
            "byteLength" : 564,
            "byteOffset" : 564
        },
        {
            "buffer" : 0,
            "byteLength" : 376,
            "byteOffset" : 1128
        },
        {
            "buffer" : 0,
            "byteLength" : 198,
            "byteOffset" : 1504
        },
        {
            "buffer" : 0,
            "byteLength" : 252,
            "byteOffset" : 1704
        },
        {
            "buffer" : 0,
            "byteLength" : 252,
            "byteOffset" : 1956
        },
        {
            "buffer" : 0,
            "byteLength" : 168,
            "byteOffset" : 2208
        },
        {
            "buffer" : 0,
            "byteLength" : 102,
            "byteOffset" : 2376
        },
        {
            "buffer" : 0,
            "byteLength" : 624,
            "byteOffset" : 2480
        },
        {
            "buffer" : 0,
            "byteLength" : 624,
            "byteOffset" : 3104
        },
        {
            "buffer" : 0,
            "byteLength" : 416,
            "byteOffset" : 3728
        },
        {
            "buffer" : 0,
            "byteLength" : 360,
            "byteOffset" : 4144
        },
        {
            "buffer" : 0,
            "byteLength" : 48,
            "byteOffset" : 4504
        },
        {
            "buffer" : 0,
            "byteLength" : 48,
            "byteOffset" : 4552
        },
        {
            "buffer" : 0,
            "byteLength" : 32,
            "byteOffset" : 4600
        },
        {
            "buffer" : 0,
            "byteLength" : 12,
            "byteOffset" : 4632
        },
        {
            "buffer" : 0,
            "byteLength" : 48,
            "byteOffset" : 4644
        },
        {
            "buffer" : 0,
            "byteLength" : 48,
            "byteOffset" : 4692
        },
        {
            "buffer" : 0,
            "byteLength" : 32,
            "byteOffset" : 4740
        },
        {
            "buffer" : 0,
            "byteLength" : 8,
            "byteOffset" : 4772
        },
        {
            "buffer" : 0,
            "byteLength" : 24,
            "byteOffset" : 4780
        },
        {
            "buffer" : 0,
            "byteLength" : 32,
            "byteOffset" : 4804
        },
        {
            "buffer" : 0,
            "byteLength" : 24,
            "byteOffset" : 4836
        }
    ],
    "buffers" : [
        {
            "byteLength" : 4860,
            "uri" : "data:application/octet-stream;base64,"
        }
    ]
}
