{
    "asset" : {
        "generator" : "Khronos glTF Blender I/O v1.7.33",
        "version" : "2.0"
    },
    "scene" : 0,
    "scenes" : [
        {
            "name" : "Scene",
            "nodes" : [
                0,
                1
            ]
        }
    ],
    "nodes" : [
        {
            "mesh" : 0,
            "name" : "Cube",
            "scale" : [
                0.7581377625465393,
                0.9604650139808655,
                0.7581377625465393
            ],
            "translation" : [
                0,
                0.7768202424049377,
                0
            ]
        },
        {
            "mesh" : 1,
            "name" : "BezierCurve",
            "translation" : [
                -0.6377372741699219,
                0.3893486261367798,
                -0.07219457626342773
            ]
        }
    ],
    "materials" : [
        {
            "doubleSided" : true,
            "name" : "Material",
            "pbrMetallicRoughness" : {
                "baseColorFactor" : [
                    0.05415309593081474,
                    0.7940324544906616,
                    0.04515868425369263,
                    1
                ],
                "metallicFactor" : 0.40714284777641296,
                "roughnessFactor" : 0.6571428775787354
            }
        },
        {
            "doubleSided" : true,
            "name" : "Material.001",
            "pbrMetallicRoughness" : {
                "baseColorFactor" : [
                    0.7971352338790894,
                    0.11897336691617966,
                    0.02126242220401764,
                    1
                ],
                "metallicFactor" : 0.550000011920929,
                "roughnessFactor" : 0.4000000059604645
            }
        }
    ],
    "meshes" : [
        {
            "name" : "Cube",
            "primitives" : [
                {
                    "attributes" : {
                        "POSITION" : 0,
                        "NORMAL" : 1,
                        "TEXCOORD_0" : 2
                    },
                    "indices" : 3,
                    "material" : 0
                }
            ]
        },
        {
            "name" : "BezierCurve",
            "primitives" : [
                {
                    "attributes" : {
                        "POSITION" : 4,
                        "NORMAL" : 5,
                        "TEXCOORD_0" : 6
                    },
                    "indices" : 7,
                    "material" : 1
                }
            ]
        }
    ],
    "accessors" : [
        {
            "bufferView" : 0,
            "componentType" : 5126,
            "count" : 511,
            "max" : [
                1,
                1.5920264720916748,
                1
            ],
            "min" : [
                -1,
                -1,
                -1
            ],
            "type" : "VEC3"
        },
        {
            "bufferView" : 1,
            "componentType" : 5126,
            "count" : 511,
            "type" : "VEC3"
        },
        {
            "bufferView" : 2,
            "componentType" : 5126,
            "count" : 511,
            "type" : "VEC2"
        },
        {
            "bufferView" : 3,
            "componentType" : 5123,
            "count" : 756,
            "type" : "SCALAR"
        },
        {
            "bufferView" : 4,
            "componentType" : 5126,
            "count" : 330,
            "max" : [
                1.7602345943450928,
                1.7834250926971436,
                0.3787132203578949
            ],
            "min" : [
                -0.47829383611679077,
                -0.02518724650144577,
                -0.33443760871887207
            ],
            "type" : "VEC3"
        },
        {
            "bufferView" : 5,
            "componentType" : 5126,
            "count" : 330,
            "type" : "VEC3"
        },
        {
            "bufferView" : 6,
            "componentType" : 5126,
            "count" : 330,
            "type" : "VEC2"
        },
        {
            "bufferView" : 7,
            "componentType" : 5123,
            "count" : 1560,
            "type" : "SCALAR"
        }
    ],
    "bufferViews" : [
        {
            "buffer" : 0,
            "byteLength" : 6132,
            "byteOffset" : 0
        },
        {
            "buffer" : 0,
            "byteLength" : 6132,
            "byteOffset" : 6132
        },
        {
            "buffer" : 0,
            "byteLength" : 4088,
            "byteOffset" : 12264
        },
        {
            "buffer" : 0,
            "byteLength" : 1512,
            "byteOffset" : 16352
        },
        {
            "buffer" : 0,
            "byteLength" : 3960,
            "byteOffset" : 17864
        },
        {
            "buffer" : 0,
            "byteLength" : 3960,
            "byteOffset" : 21824
        },
        {
            "buffer" : 0,
            "byteLength" : 2640,
            "byteOffset" : 25784
        },
        {
            "buffer" : 0,
            "byteLength" : 3120,
            "byteOffset" : 28424
        }
    ],
    "buffers" : [
        {
            "byteLength" : 31544,
            "uri" : "data:application/octet-stream;base64,"
        }
    ]
}
