{
    "asset" : {
        "generator" : "Khronos glTF Blender I/O v1.7.33",
        "version" : "2.0"
    },
    "scene" : 0,
    "scenes" : [
        {
            "name" : "Scene",
            "nodes" : [
                0,
                1
            ]
        }
    ],
    "nodes" : [
        {
            "mesh" : 0,
            "name" : "Cube",
            "scale" : [
                0.5247336626052856,
                0.5247336626052856,
                0.5247336626052856
            ],
            "translation" : [
                -0.316319078207016,
                0.46983611583709717,
                -0.23878973722457886
            ]
        },
        {
            "mesh" : 1,
            "name" : "Torus.001",
            "scale" : [
                1.1554116010665894,
                1.1554116010665894,
                1.1554116010665894
            ],
            "translation" : [
                0.20855283737182617,
                0.2935641407966614,
                0.2794981002807617
            ]
        }
    ],
    "materials" : [
        {
            "doubleSided" : true,
            "name" : "Material",
            "pbrMetallicRoughness" : {
                "baseColorFactor" : [
                    0.7996994256973267,
                    0.13197283446788788,
                    0.13197283446788788,
                    1
                ],
                "metallicFactor" : 0.1071428582072258,
                "roughnessFactor" : 0.11428570747375488
            }
        },
        {
            "doubleSided" : true,
            "name" : "Material.001",
            "pbrMetallicRoughness" : {
                "baseColorFactor" : [
                    0.015012679621577263,
                    0.023625435307621956,
                    0.7961620688438416,
                    1
                ],
                "metallicFactor" : 0.30714285373687744,
                "roughnessFactor" : 0.17142857611179352
            }
        },
        {
            "doubleSided" : true,
            "name" : "Material.002",
            "pbrMetallicRoughness" : {
                "baseColorFactor" : [
                    0,
                    0.17745471000671387,
                    0.7940847277641296,
                    1
                ],
                "metallicFactor" : 0.30000001192092896,
                "roughnessFactor" : 0.8357142806053162
            }
        },
        {
            "doubleSided" : true,
            "name" : "Material.003",
            "pbrMetallicRoughness" : {
                "baseColorFactor" : [
                    0.800000011920929,
                    0.800000011920929,
                    0.800000011920929,
                    1
                ],
                "metallicFactor" : 1,
                "roughnessFactor" : 0.4000000059604645
            }
        }
    ],
    "meshes" : [
        {
            "name" : "Cube",
            "primitives" : [
                {
                    "attributes" : {
                        "POSITION" : 0,
                        "NORMAL" : 1,
                        "TEXCOORD_0" : 2
                    },
                    "indices" : 3,
                    "material" : 0
                },
                {
                    "attributes" : {
                        "POSITION" : 4,
                        "NORMAL" : 5,
                        "TEXCOORD_0" : 6
                    },
                    "indices" : 7,
                    "material" : 1
                }
            ]
        },
        {
            "name" : "Torus.001",
            "primitives" : [
                {
                    "attributes" : {
                        "POSITION" : 8,
                        "NORMAL" : 9,
                        "TEXCOORD_0" : 10
                    },
                    "indices" : 11,
                    "material" : 2
                },
                {
                    "attributes" : {
                        "POSITION" : 12,
                        "NORMAL" : 13,
                        "TEXCOORD_0" : 14
                    },
                    "indices" : 15,
                    "material" : 3
                }
            ]
        }
    ],
    "accessors" : [
        {
            "bufferView" : 0,
            "componentType" : 5126,
            "count" : 124,
            "max" : [
                1,
                0.8637944459915161,
                1
            ],
            "min" : [
                -1,
                -1.1362055540084839,
                -1
            ],
            "type" : "VEC3"
        },
        {
            "bufferView" : 1,
            "componentType" : 5126,
            "count" : 124,
            "type" : "VEC3"
        },
        {
            "bufferView" : 2,
            "componentType" : 5126,
            "count" : 124,
            "type" : "VEC2"
        },
        {
            "bufferView" : 3,
            "componentType" : 5123,
            "count" : 174,
            "type" : "SCALAR"
        },
        {
            "bufferView" : 4,
            "componentType" : 5126,
            "count" : 4,
            "max" : [
                0.4665267765522003,
                0.5320587158203125,
                0.46652674674987793
            ],
            "min" : [
                -0.4665267765522003,
                0.5320587158203125,
                -0.4665268063545227
            ],
            "type" : "VEC3"
        },
        {
            "bufferView" : 5,
            "componentType" : 5126,
            "count" : 4,
            "type" : "VEC3"
        },
        {
            "bufferView" : 6,
            "componentType" : 5126,
            "count" : 4,
            "type" : "VEC2"
        },
        {
            "bufferView" : 7,
            "componentType" : 5123,
            "count" : 6,
            "type" : "SCALAR"
        },
        {
            "bufferView" : 8,
            "componentType" : 5126,
            "count" : 384,
            "max" : [
                0.5936632752418518,
                0.17897531390190125,
                0.6035820245742798
            ],
            "min" : [
                -0.5600000619888306,
                -0.17897531390190125,
                -0.5600000619888306
            ],
            "type" : "VEC3"
        },
        {
            "bufferView" : 9,
            "componentType" : 5126,
            "count" : 384,
            "type" : "VEC3"
        },
        {
            "bufferView" : 10,
            "componentType" : 5126,
            "count" : 384,
            "type" : "VEC2"
        },
        {
            "bufferView" : 11,
            "componentType" : 5123,
            "count" : 576,
            "type" : "SCALAR"
        },
        {
            "bufferView" : 12,
            "componentType" : 5126,
            "count" : 96,
            "max" : [
                0.5936632752418518,
                0.17897531390190125,
                0.6035820245742798
            ],
            "min" : [
                -0.5160911679267883,
                -0.17897531390190125,
                -0.5132285952568054
            ],
            "type" : "VEC3"
        },
        {
            "bufferView" : 13,
            "componentType" : 5126,
            "count" : 96,
            "type" : "VEC3"
        },
        {
            "bufferView" : 14,
            "componentType" : 5126,
            "count" : 96,
            "type" : "VEC2"
        },
        {
            "bufferView" : 15,
            "componentType" : 5123,
            "count" : 144,
            "type" : "SCALAR"
        }
    ],
    "bufferViews" : [
        {
            "buffer" : 0,
            "byteLength" : 1488,
            "byteOffset" : 0
        },
        {
            "buffer" : 0,
            "byteLength" : 1488,
            "byteOffset" : 1488
        },
        {
            "buffer" : 0,
            "byteLength" : 992,
            "byteOffset" : 2976
        },
        {
            "buffer" : 0,
            "byteLength" : 348,
            "byteOffset" : 3968
        },
        {
            "buffer" : 0,
            "byteLength" : 48,
            "byteOffset" : 4316
        },
        {
            "buffer" : 0,
            "byteLength" : 48,
            "byteOffset" : 4364
        },
        {
            "buffer" : 0,
            "byteLength" : 32,
            "byteOffset" : 4412
        },
        {
            "buffer" : 0,
            "byteLength" : 12,
            "byteOffset" : 4444
        },
        {
            "buffer" : 0,
            "byteLength" : 4608,
            "byteOffset" : 4456
        },
        {
            "buffer" : 0,
            "byteLength" : 4608,
            "byteOffset" : 9064
        },
        {
            "buffer" : 0,
            "byteLength" : 3072,
            "byteOffset" : 13672
        },
        {
            "buffer" : 0,
            "byteLength" : 1152,
            "byteOffset" : 16744
        },
        {
            "buffer" : 0,
            "byteLength" : 1152,
            "byteOffset" : 17896
        },
        {
            "buffer" : 0,
            "byteLength" : 1152,
            "byteOffset" : 19048
        },
        {
            "buffer" : 0,
            "byteLength" : 768,
            "byteOffset" : 20200
        },
        {
            "buffer" : 0,
            "byteLength" : 288,
            "byteOffset" : 20968
        }
    ],
    "buffers" : [
        {
            "byteLength" : 21256,
            "uri" : "data:application/octet-stream;base64,"
        }
    ]
}
