{
    "asset" : {
        "generator" : "Khronos glTF Blender I/O v1.7.33",
        "version" : "2.0"
    },
    "scene" : 0,
    "scenes" : [
        {
            "name" : "Scene",
            "nodes" : [
                0,
                1,
                2,
                3
            ]
        }
    ],
    "nodes" : [
        {
            "mesh" : 0,
            "name" : "Cube",
            "rotation" : [
                0.2995615303516388,
                -0.026208236813545227,
                -0.0831219032406807,
                0.9500877857208252
            ],
            "scale" : [
                0.46641770005226135,
                0.022741056978702545,
                0.46641770005226135
            ],
            "translation" : [
                -0.49438923597335815,
                0.4747658669948578,
                -0.507254958152771
            ]
        },
        {
            "mesh" : 1,
            "name" : "Cube.001",
            "rotation" : [
                0.2995615303516388,
                -0.026208236813545227,
                -0.0831219032406807,
                0.9500877857208252
            ],
            "scale" : [
                0.46641770005226135,
                0.022741056978702545,
                0.46641770005226135
            ],
            "translation" : [
                0.5007694959640503,
                0.4747658669948578,
                -0.507254958152771
            ]
        },
        {
            "mesh" : 2,
            "name" : "Cube.003",
            "rotation" : [
                0.2995615303516388,
                -0.026208236813545227,
                -0.0831219032406807,
                0.9500877857208252
            ],
            "scale" : [
                0.46641770005226135,
                0.022741056978702545,
                0.46641770005226135
            ],
            "translation" : [
                -0.49438923597335815,
                0.4747658669948578,
                0.4501333236694336
            ]
        },
        {
            "mesh" : 3,
            "name" : "Cube.002",
            "rotation" : [
                0.2995615303516388,
                -0.026208236813545227,
                -0.0831219032406807,
                0.9500877857208252
            ],
            "scale" : [
                0.46641770005226135,
                0.022741056978702545,
                0.46641770005226135
            ],
            "translation" : [
                0.5007694959640503,
                0.4747658669948578,
                0.4501333236694336
            ]
        }
    ],
    "materials" : [
        {
            "doubleSided" : true,
            "name" : "Material",
            "pbrMetallicRoughness" : {
                "baseColorFactor" : [
                    0,
                    0.2682478129863739,
                    0.7962034344673157,
                    1
                ],
                "metallicFactor" : 0.16428571939468384,
                "roughnessFactor" : 0.4000000059604645
            }
        },
        {
            "doubleSided" : true,
            "name" : "Material.001",
            "pbrMetallicRoughness" : {
                "baseColorFactor" : [
                    0.008363967761397362,
                    0.004989916458725929,
                    0.060719478875398636,
                    1
                ],
                "metallicFactor" : 0.6642857193946838,
                "roughnessFactor" : 0.24285714328289032
            }
        },
        {
            "doubleSided" : true,
            "name" : "Material.003",
            "pbrMetallicRoughness" : {
                "baseColorFactor" : [
                    0,
                    0.2682478129863739,
                    0.7962034344673157,
                    1
                ],
                "metallicFactor" : 0.16428571939468384,
                "roughnessFactor" : 0.4000000059604645
            }
        },
        {
            "doubleSided" : true,
            "name" : "Material.002",
            "pbrMetallicRoughness" : {
                "baseColorFactor" : [
                    0.008363967761397362,
                    0.004989916458725929,
                    0.060719478875398636,
                    1
                ],
                "metallicFactor" : 0.6642857193946838,
                "roughnessFactor" : 0.24285714328289032
            }
        },
        {
            "doubleSided" : true,
            "name" : "Material.007",
            "pbrMetallicRoughness" : {
                "baseColorFactor" : [
                    0,
                    0.2682478129863739,
                    0.7962034344673157,
                    1
                ],
                "metallicFactor" : 0.16428571939468384,
                "roughnessFactor" : 0.4000000059604645
            }
        },
        {
            "doubleSided" : true,
            "name" : "Material.006",
            "pbrMetallicRoughness" : {
                "baseColorFactor" : [
                    0.008363967761397362,
                    0.004989916458725929,
                    0.060719478875398636,
                    1
                ],
                "metallicFactor" : 0.6642857193946838,
                "roughnessFactor" : 0.24285714328289032
            }
        },
        {
            "doubleSided" : true,
            "name" : "Material.004",
            "pbrMetallicRoughness" : {
                "baseColorFactor" : [
                    0,
                    0.2682478129863739,
                    0.7962034344673157,
                    1
                ],
                "metallicFactor" : 0.16428571939468384,
                "roughnessFactor" : 0.4000000059604645
            }
        },
        {
            "doubleSided" : true,
            "name" : "Material.005",
            "pbrMetallicRoughness" : {
                "baseColorFactor" : [
                    0.008363967761397362,
                    0.004989916458725929,
                    0.060719478875398636,
                    1
                ],
                "metallicFactor" : 0.6642857193946838,
                "roughnessFactor" : 0.24285714328289032
            }
        }
    ],
    "meshes" : [
        {
            "name" : "Cube",
            "primitives" : [
                {
                    "attributes" : {
                        "POSITION" : 0,
                        "NORMAL" : 1,
                        "TEXCOORD_0" : 2
                    },
                    "indices" : 3,
                    "material" : 0
                },
                {
                    "attributes" : {
                        "POSITION" : 4,
                        "NORMAL" : 5,
                        "TEXCOORD_0" : 6
                    },
                    "indices" : 7,
                    "material" : 1
                }
            ]
        },
        {
            "name" : "Cube.001",
            "primitives" : [
                {
                    "attributes" : {
                        "POSITION" : 8,
                        "NORMAL" : 9,
                        "TEXCOORD_0" : 10
                    },
                    "indices" : 3,
                    "material" : 2
                },
                {
                    "attributes" : {
                        "POSITION" : 11,
                        "NORMAL" : 12,
                        "TEXCOORD_0" : 13
                    },
                    "indices" : 7,
                    "material" : 3
                }
            ]
        },
        {
            "name" : "Cube.003",
            "primitives" : [
                {
                    "attributes" : {
                        "POSITION" : 14,
                        "NORMAL" : 15,
                        "TEXCOORD_0" : 16
                    },
                    "indices" : 3,
                    "material" : 4
                },
                {
                    "attributes" : {
                        "POSITION" : 17,
                        "NORMAL" : 18,
                        "TEXCOORD_0" : 19
                    },
                    "indices" : 7,
                    "material" : 5
                }
            ]
        },
        {
            "name" : "Cube.002",
            "primitives" : [
                {
                    "attributes" : {
                        "POSITION" : 20,
                        "NORMAL" : 21,
                        "TEXCOORD_0" : 22
                    },
                    "indices" : 3,
                    "material" : 6
                },
                {
                    "attributes" : {
                        "POSITION" : 23,
                        "NORMAL" : 24,
                        "TEXCOORD_0" : 25
                    },
                    "indices" : 7,
                    "material" : 7
                }
            ]
        }
    ],
    "accessors" : [
        {
            "bufferView" : 0,
            "componentType" : 5126,
            "count" : 62,
            "max" : [
                1,
                1,
                1.4938548803329468
            ],
            "min" : [
                -1,
                -38.25005340576172,
                -1
            ],
            "type" : "VEC3"
        },
        {
            "bufferView" : 1,
            "componentType" : 5126,
            "count" : 62,
            "type" : "VEC3"
        },
        {
            "bufferView" : 2,
            "componentType" : 5126,
            "count" : 62,
            "type" : "VEC2"
        },
        {
            "bufferView" : 3,
            "componentType" : 5123,
            "count" : 102,
            "type" : "SCALAR"
        },
        {
            "bufferView" : 4,
            "componentType" : 5126,
            "count" : 4,
            "max" : [
                0.840970516204834,
                1,
                0.840970516204834
            ],
            "min" : [
                -0.840970516204834,
                1,
                -0.840970516204834
            ],
            "type" : "VEC3"
        },
        {
            "bufferView" : 5,
            "componentType" : 5126,
            "count" : 4,
            "type" : "VEC3"
        },
        {
            "bufferView" : 6,
            "componentType" : 5126,
            "count" : 4,
            "type" : "VEC2"
        },
        {
            "bufferView" : 7,
            "componentType" : 5123,
            "count" : 6,
            "type" : "SCALAR"
        },
        {
            "bufferView" : 8,
            "componentType" : 5126,
            "count" : 62,
            "max" : [
                1,
                1,
                1.4938548803329468
            ],
            "min" : [
                -1,
                -38.25005340576172,
                -1
            ],
            "type" : "VEC3"
        },
        {
            "bufferView" : 9,
            "componentType" : 5126,
            "count" : 62,
            "type" : "VEC3"
        },
        {
            "bufferView" : 10,
            "componentType" : 5126,
            "count" : 62,
            "type" : "VEC2"
        },
        {
            "bufferView" : 11,
            "componentType" : 5126,
            "count" : 4,
            "max" : [
                0.840970516204834,
                1,
                0.840970516204834
            ],
            "min" : [
                -0.840970516204834,
                1,
                -0.840970516204834
            ],
            "type" : "VEC3"
        },
        {
            "bufferView" : 12,
            "componentType" : 5126,
            "count" : 4,
            "type" : "VEC3"
        },
        {
            "bufferView" : 13,
            "componentType" : 5126,
            "count" : 4,
            "type" : "VEC2"
        },
        {
            "bufferView" : 14,
            "componentType" : 5126,
            "count" : 62,
            "max" : [
                1,
                1,
                1.4938548803329468
            ],
            "min" : [
                -1,
                -38.25005340576172,
                -1
            ],
            "type" : "VEC3"
        },
        {
            "bufferView" : 15,
            "componentType" : 5126,
            "count" : 62,
            "type" : "VEC3"
        },
        {
            "bufferView" : 16,
            "componentType" : 5126,
            "count" : 62,
            "type" : "VEC2"
        },
        {
            "bufferView" : 17,
            "componentType" : 5126,
            "count" : 4,
            "max" : [
                0.840970516204834,
                1,
                0.840970516204834
            ],
            "min" : [
                -0.840970516204834,
                1,
                -0.840970516204834
            ],
            "type" : "VEC3"
        },
        {
            "bufferView" : 18,
            "componentType" : 5126,
            "count" : 4,
            "type" : "VEC3"
        },
        {
            "bufferView" : 19,
            "componentType" : 5126,
            "count" : 4,
            "type" : "VEC2"
        },
        {
            "bufferView" : 20,
            "componentType" : 5126,
            "count" : 62,
            "max" : [
                1,
                1,
                1.4938548803329468
            ],
            "min" : [
                -1,
                -38.25005340576172,
                -1
            ],
            "type" : "VEC3"
        },
        {
            "bufferView" : 21,
            "componentType" : 5126,
            "count" : 62,
            "type" : "VEC3"
        },
        {
            "bufferView" : 22,
            "componentType" : 5126,
            "count" : 62,
            "type" : "VEC2"
        },
        {
            "bufferView" : 23,
            "componentType" : 5126,
            "count" : 4,
            "max" : [
                0.840970516204834,
                1,
                0.840970516204834
            ],
            "min" : [
                -0.840970516204834,
                1,
                -0.840970516204834
            ],
            "type" : "VEC3"
        },
        {
            "bufferView" : 24,
            "componentType" : 5126,
            "count" : 4,
            "type" : "VEC3"
        },
        {
            "bufferView" : 25,
            "componentType" : 5126,
            "count" : 4,
            "type" : "VEC2"
        }
    ],
    "bufferViews" : [
        {
            "buffer" : 0,
            "byteLength" : 744,
            "byteOffset" : 0
        },
        {
            "buffer" : 0,
            "byteLength" : 744,
            "byteOffset" : 744
        },
        {
            "buffer" : 0,
            "byteLength" : 496,
            "byteOffset" : 1488
        },
        {
            "buffer" : 0,
            "byteLength" : 204,
            "byteOffset" : 1984
        },
        {
            "buffer" : 0,
            "byteLength" : 48,
            "byteOffset" : 2188
        },
        {
            "buffer" : 0,
            "byteLength" : 48,
            "byteOffset" : 2236
        },
        {
            "buffer" : 0,
            "byteLength" : 32,
            "byteOffset" : 2284
        },
        {
            "buffer" : 0,
            "byteLength" : 12,
            "byteOffset" : 2316
        },
        {
            "buffer" : 0,
            "byteLength" : 744,
            "byteOffset" : 2328
        },
        {
            "buffer" : 0,
            "byteLength" : 744,
            "byteOffset" : 3072
        },
        {
            "buffer" : 0,
            "byteLength" : 496,
            "byteOffset" : 3816
        },
        {
            "buffer" : 0,
            "byteLength" : 48,
            "byteOffset" : 4312
        },
        {
            "buffer" : 0,
            "byteLength" : 48,
            "byteOffset" : 4360
        },
        {
            "buffer" : 0,
            "byteLength" : 32,
            "byteOffset" : 4408
        },
        {
            "buffer" : 0,
            "byteLength" : 744,
            "byteOffset" : 4440
        },
        {
            "buffer" : 0,
            "byteLength" : 744,
            "byteOffset" : 5184
        },
        {
            "buffer" : 0,
            "byteLength" : 496,
            "byteOffset" : 5928
        },
        {
            "buffer" : 0,
            "byteLength" : 48,
            "byteOffset" : 6424
        },
        {
            "buffer" : 0,
            "byteLength" : 48,
            "byteOffset" : 6472
        },
        {
            "buffer" : 0,
            "byteLength" : 32,
            "byteOffset" : 6520
        },
        {
            "buffer" : 0,
            "byteLength" : 744,
            "byteOffset" : 6552
        },
        {
            "buffer" : 0,
            "byteLength" : 744,
            "byteOffset" : 7296
        },
        {
            "buffer" : 0,
            "byteLength" : 496,
            "byteOffset" : 8040
        },
        {
            "buffer" : 0,
            "byteLength" : 48,
            "byteOffset" : 8536
        },
        {
            "buffer" : 0,
            "byteLength" : 48,
            "byteOffset" : 8584
        },
        {
            "buffer" : 0,
            "byteLength" : 32,
            "byteOffset" : 8632
        }
    ],
    "buffers" : [
        {
            "byteLength" : 8664,
            "uri" : "data:application/octet-stream;base64,"
        }
    ]
}
