{
    "asset" : {
        "generator" : "Khronos glTF Blender I/O v1.7.33",
        "version" : "2.0"
    },
    "scene" : 0,
    "scenes" : [
        {
            "name" : "Scene",
            "nodes" : [
                0,
                1,
                2
            ]
        }
    ],
    "nodes" : [
        {
            "mesh" : 0,
            "name" : "Cube.001",
            "scale" : [
                0.20419225096702576,
                0.20825541019439697,
                0.33703750371932983
            ],
            "translation" : [
                -0.4967697262763977,
                0.18926648795604706,
                0.2373953014612198
            ]
        },
        {
            "mesh" : 1,
            "name" : "Cube.002",
            "rotation" : [
                0,
                -0.7071067690849304,
                0,
                0.7071068286895752
            ],
            "scale" : [
                0.20419225096702576,
                0.20825541019439697,
                0.33703750371932983
            ],
            "translation" : [
                0.4636792540550232,
                0.18926648795604706,
                0.2373953014612198
            ]
        },
        {
            "mesh" : 2,
            "name" : "Cube.003",
            "rotation" : [
                0,
                -0.7071067690849304,
                0,
                0.7071068286895752
            ],
            "scale" : [
                0.20419225096702576,
                0.20825541019439697,
                0.33703750371932983
            ],
            "translation" : [
                0.17515131831169128,
                0.18926648795604706,
                -0.46927785873413086
            ]
        }
    ],
    "materials" : [
        {
            "doubleSided" : true,
            "name" : "Material.001",
            "pbrMetallicRoughness" : {
                "baseColorFactor" : [
                    0.7939240336418152,
                    0.04525930434465408,
                    0,
                    1
                ],
                "metallicFactor" : 0,
                "roughnessFactor" : 0.4000000059604645
            }
        },
        {
            "doubleSided" : true,
            "name" : "Material.003",
            "pbrMetallicRoughness" : {
                "baseColorFactor" : [
                    0.053791917860507965,
                    0.06827176362276077,
                    0.5814631581306458,
                    1
                ],
                "metallicFactor" : 0,
                "roughnessFactor" : 0.4000000059604645
            }
        },
        {
            "doubleSided" : true,
            "name" : "Material.004",
            "pbrMetallicRoughness" : {
                "baseColorFactor" : [
                    0.029448308050632477,
                    0.06067904457449913,
                    0.012761073186993599,
                    1
                ],
                "metallicFactor" : 0,
                "roughnessFactor" : 0.4000000059604645
            }
        },
        {
            "doubleSided" : true,
            "name" : "Material.002",
            "pbrMetallicRoughness" : {
                "baseColorFactor" : [
                    0.7938095331192017,
                    0.5103451609611511,
                    0.08563964813947678,
                    1
                ],
                "metallicFactor" : 0,
                "roughnessFactor" : 0.4000000059604645
            }
        }
    ],
    "meshes" : [
        {
            "name" : "Cube.001",
            "primitives" : [
                {
                    "attributes" : {
                        "POSITION" : 0,
                        "NORMAL" : 1,
                        "TEXCOORD_0" : 2
                    },
                    "indices" : 3,
                    "material" : 0
                },
                {
                    "attributes" : {
                        "POSITION" : 4,
                        "NORMAL" : 5,
                        "TEXCOORD_0" : 6
                    },
                    "indices" : 7,
                    "material" : 1
                }
            ]
        },
        {
            "name" : "Cube.002",
            "primitives" : [
                {
                    "attributes" : {
                        "POSITION" : 8,
                        "NORMAL" : 9,
                        "TEXCOORD_0" : 10
                    },
                    "indices" : 11,
                    "material" : 0
                },
                {
                    "attributes" : {
                        "POSITION" : 12,
                        "NORMAL" : 13,
                        "TEXCOORD_0" : 14
                    },
                    "indices" : 7,
                    "material" : 2
                }
            ]
        },
        {
            "name" : "Cube.003",
            "primitives" : [
                {
                    "attributes" : {
                        "POSITION" : 15,
                        "NORMAL" : 16,
                        "TEXCOORD_0" : 17
                    },
                    "indices" : 18,
                    "material" : 0
                },
                {
                    "attributes" : {
                        "POSITION" : 19,
                        "NORMAL" : 20,
                        "TEXCOORD_0" : 21
                    },
                    "indices" : 7,
                    "material" : 3
                }
            ]
        }
    ],
    "accessors" : [
        {
            "bufferView" : 0,
            "componentType" : 5126,
            "count" : 28,
            "max" : [
                1.1212215423583984,
                2.5829849243164062,
                1.1212215423583984
            ],
            "min" : [
                -1.1212215423583984,
                -1,
                -1.1212215423583984
            ],
            "type" : "VEC3"
        },
        {
            "bufferView" : 1,
            "componentType" : 5126,
            "count" : 28,
            "type" : "VEC3"
        },
        {
            "bufferView" : 2,
            "componentType" : 5126,
            "count" : 28,
            "type" : "VEC2"
        },
        {
            "bufferView" : 3,
            "componentType" : 5123,
            "count" : 48,
            "type" : "SCALAR"
        },
        {
            "bufferView" : 4,
            "componentType" : 5126,
            "count" : 16,
            "max" : [
                1,
                1,
                1
            ],
            "min" : [
                -1,
                -1,
                -1
            ],
            "type" : "VEC3"
        },
        {
            "bufferView" : 5,
            "componentType" : 5126,
            "count" : 16,
            "type" : "VEC3"
        },
        {
            "bufferView" : 6,
            "componentType" : 5126,
            "count" : 16,
            "type" : "VEC2"
        },
        {
            "bufferView" : 7,
            "componentType" : 5123,
            "count" : 24,
            "type" : "SCALAR"
        },
        {
            "bufferView" : 8,
            "componentType" : 5126,
            "count" : 34,
            "max" : [
                1.0319794416427612,
                2.6111676692962646,
                1.0319794416427612
            ],
            "min" : [
                -1.0319794416427612,
                -1,
                -1.0319794416427612
            ],
            "type" : "VEC3"
        },
        {
            "bufferView" : 9,
            "componentType" : 5126,
            "count" : 34,
            "type" : "VEC3"
        },
        {
            "bufferView" : 10,
            "componentType" : 5126,
            "count" : 34,
            "type" : "VEC2"
        },
        {
            "bufferView" : 11,
            "componentType" : 5123,
            "count" : 48,
            "type" : "SCALAR"
        },
        {
            "bufferView" : 12,
            "componentType" : 5126,
            "count" : 16,
            "max" : [
                1,
                1,
                1
            ],
            "min" : [
                -1,
                -1,
                -1
            ],
            "type" : "VEC3"
        },
        {
            "bufferView" : 13,
            "componentType" : 5126,
            "count" : 16,
            "type" : "VEC3"
        },
        {
            "bufferView" : 14,
            "componentType" : 5126,
            "count" : 16,
            "type" : "VEC2"
        },
        {
            "bufferView" : 15,
            "componentType" : 5126,
            "count" : 28,
            "max" : [
                1.0534110069274902,
                1.7941734790802002,
                1.0534110069274902
            ],
            "min" : [
                -1.0534110069274902,
                -1,
                -1.0534110069274902
            ],
            "type" : "VEC3"
        },
        {
            "bufferView" : 16,
            "componentType" : 5126,
            "count" : 28,
            "type" : "VEC3"
        },
        {
            "bufferView" : 17,
            "componentType" : 5126,
            "count" : 28,
            "type" : "VEC2"
        },
        {
            "bufferView" : 18,
            "componentType" : 5123,
            "count" : 48,
            "type" : "SCALAR"
        },
        {
            "bufferView" : 19,
            "componentType" : 5126,
            "count" : 16,
            "max" : [
                1,
                1,
                1
            ],
            "min" : [
                -1,
                -1,
                -1
            ],
            "type" : "VEC3"
        },
        {
            "bufferView" : 20,
            "componentType" : 5126,
            "count" : 16,
            "type" : "VEC3"
        },
        {
            "bufferView" : 21,
            "componentType" : 5126,
            "count" : 16,
            "type" : "VEC2"
        }
    ],
    "bufferViews" : [
        {
            "buffer" : 0,
            "byteLength" : 336,
            "byteOffset" : 0
        },
        {
            "buffer" : 0,
            "byteLength" : 336,
            "byteOffset" : 336
        },
        {
            "buffer" : 0,
            "byteLength" : 224,
            "byteOffset" : 672
        },
        {
            "buffer" : 0,
            "byteLength" : 96,
            "byteOffset" : 896
        },
        {
            "buffer" : 0,
            "byteLength" : 192,
            "byteOffset" : 992
        },
        {
            "buffer" : 0,
            "byteLength" : 192,
            "byteOffset" : 1184
        },
        {
            "buffer" : 0,
            "byteLength" : 128,
            "byteOffset" : 1376
        },
        {
            "buffer" : 0,
            "byteLength" : 48,
            "byteOffset" : 1504
        },
        {
            "buffer" : 0,
            "byteLength" : 408,
            "byteOffset" : 1552
        },
        {
            "buffer" : 0,
            "byteLength" : 408,
            "byteOffset" : 1960
        },
        {
            "buffer" : 0,
            "byteLength" : 272,
            "byteOffset" : 2368
        },
        {
            "buffer" : 0,
            "byteLength" : 96,
            "byteOffset" : 2640
        },
        {
            "buffer" : 0,
            "byteLength" : 192,
            "byteOffset" : 2736
        },
        {
            "buffer" : 0,
            "byteLength" : 192,
            "byteOffset" : 2928
        },
        {
            "buffer" : 0,
            "byteLength" : 128,
            "byteOffset" : 3120
        },
        {
            "buffer" : 0,
            "byteLength" : 336,
            "byteOffset" : 3248
        },
        {
            "buffer" : 0,
            "byteLength" : 336,
            "byteOffset" : 3584
        },
        {
            "buffer" : 0,
            "byteLength" : 224,
            "byteOffset" : 3920
        },
        {
            "buffer" : 0,
            "byteLength" : 96,
            "byteOffset" : 4144
        },
        {
            "buffer" : 0,
            "byteLength" : 192,
            "byteOffset" : 4240
        },
        {
            "buffer" : 0,
            "byteLength" : 192,
            "byteOffset" : 4432
        },
        {
            "buffer" : 0,
            "byteLength" : 128,
            "byteOffset" : 4624
        }
    ],
    "buffers" : [
        {
            "byteLength" : 4752,
            "uri" : "data:application/octet-stream;base64,"
        }
    ]
}
