{
    "asset" : {
        "generator" : "Khronos glTF Blender I/O v1.7.33",
        "version" : "2.0"
    },
    "scene" : 0,
    "scenes" : [
        {
            "name" : "Scene",
            "nodes" : [
                0,
                1,
                2,
                3,
                4,
                5
            ]
        }
    ],
    "nodes" : [
        {
            "mesh" : 0,
            "name" : "Icosphere",
            "rotation" : [
                0,
                0.48388370871543884,
                0,
                0.8751324415206909
            ],
            "scale" : [
                0.7017733454704285,
                1.4390833377838135,
                0.7017733454704285
            ],
            "translation" : [
                -0.13367342948913574,
                1.8559322357177734,
                0.2533622980117798
            ]
        },
        {
            "mesh" : 1,
            "name" : "Cylinder",
            "scale" : [
                0.15511369705200195,
                -0.9757729768753052,
                0.15511369705200195
            ],
            "translation" : [
                -0.31826525926589966,
                0.8698986768722534,
                0.1574162393808365
            ]
        },
        {
            "mesh" : 2,
            "name" : "Cylinder.001",
            "scale" : [
                0.15511369705200195,
                -0.9757729768753052,
                0.15511369705200195
            ],
            "translation" : [
                0.8600402474403381,
                0.8698986768722534,
                -0.27596360445022583
            ]
        },
        {
            "mesh" : 3,
            "name" : "Icosphere.001",
            "scale" : [
                0.6267898678779602,
                0.9131675362586975,
                0.6267898678779602
            ],
            "translation" : [
                0.877347469329834,
                1.8458304405212402,
                -0.26776981353759766
            ]
        },
        {
            "mesh" : 4,
            "name" : "Cylinder.002",
            "scale" : [
                0.15511369705200195,
                -0.9757729768753052,
                0.15511369705200195
            ],
            "translation" : [
                -0.1160210371017456,
                0.8698986768722534,
                -0.9761936068534851
            ]
        },
        {
            "mesh" : 5,
            "name" : "Cone",
            "translation" : [
                -0.12340366840362549,
                1.6471670866012573,
                -1.0692888498306274
            ]
        }
    ],
    "materials" : [
        {
            "doubleSided" : true,
            "name" : "Material.001",
            "pbrMetallicRoughness" : {
                "baseColorFactor" : [
                    0.01171084214001894,
                    0.1788620799779892,
                    0.005035655107349157,
                    1
                ],
                "metallicFactor" : 0,
                "roughnessFactor" : 0.8833333253860474
            }
        },
        {
            "doubleSided" : true,
            "name" : "Material.002",
            "pbrMetallicRoughness" : {
                "baseColorFactor" : [
                    0.7961620688438416,
                    0.06967730820178986,
                    0.03693239390850067,
                    1
                ],
                "metallicFactor" : 0,
                "roughnessFactor" : 0.7333333492279053
            }
        },
        {
            "doubleSided" : true,
            "name" : "Material.003",
            "pbrMetallicRoughness" : {
                "baseColorFactor" : [
                    0.7961620688438416,
                    0.06967730820178986,
                    0.03693239390850067,
                    1
                ],
                "metallicFactor" : 0,
                "roughnessFactor" : 0.7333333492279053
            }
        },
        {
            "doubleSided" : true,
            "name" : "Material.004",
            "pbrMetallicRoughness" : {
                "baseColorFactor" : [
                    0.7961620688438416,
                    0.06967730820178986,
                    0.03693239390850067,
                    1
                ],
                "metallicFactor" : 0,
                "roughnessFactor" : 0.7333333492279053
            }
        }
    ],
    "meshes" : [
        {
            "name" : "Icosphere",
            "primitives" : [
                {
                    "attributes" : {
                        "POSITION" : 0,
                        "NORMAL" : 1,
                        "TEXCOORD_0" : 2
                    },
                    "indices" : 3,
                    "material" : 0
                }
            ]
        },
        {
            "name" : "Cylinder.001",
            "primitives" : [
                {
                    "attributes" : {
                        "POSITION" : 4,
                        "NORMAL" : 5,
                        "TEXCOORD_0" : 6
                    },
                    "indices" : 7,
                    "material" : 1
                }
            ]
        },
        {
            "name" : "Cylinder.002",
            "primitives" : [
                {
                    "attributes" : {
                        "POSITION" : 8,
                        "NORMAL" : 9,
                        "TEXCOORD_0" : 10
                    },
                    "indices" : 7,
                    "material" : 2
                }
            ]
        },
        {
            "name" : "Icosphere.001",
            "primitives" : [
                {
                    "attributes" : {
                        "POSITION" : 11,
                        "NORMAL" : 12,
                        "TEXCOORD_0" : 13
                    },
                    "indices" : 3,
                    "material" : 0
                }
            ]
        },
        {
            "name" : "Cylinder.003",
            "primitives" : [
                {
                    "attributes" : {
                        "POSITION" : 14,
                        "NORMAL" : 15,
                        "TEXCOORD_0" : 16
                    },
                    "indices" : 7,
                    "material" : 3
                }
            ]
        },
        {
            "name" : "Cone",
            "primitives" : [
                {
                    "attributes" : {
                        "POSITION" : 17,
                        "NORMAL" : 18,
                        "TEXCOORD_0" : 19
                    },
                    "indices" : 20,
                    "material" : 0
                }
            ]
        }
    ],
    "accessors" : [
        {
            "bufferView" : 0,
            "componentType" : 5126,
            "count" : 205,
            "max" : [
                0.8262582421302795,
                0.9245913028717041,
                0.8282575607299805
            ],
            "min" : [
                -0.9246605634689331,
                -0.9554751515388489,
                -0.9293609857559204
            ],
            "type" : "VEC3"
        },
        {
            "bufferView" : 1,
            "componentType" : 5126,
            "count" : 205,
            "type" : "VEC3"
        },
        {
            "bufferView" : 2,
            "componentType" : 5126,
            "count" : 205,
            "type" : "VEC2"
        },
        {
            "bufferView" : 3,
            "componentType" : 5123,
            "count" : 960,
            "type" : "SCALAR"
        },
        {
            "bufferView" : 4,
            "componentType" : 5126,
            "count" : 26,
            "max" : [
                0.866025447845459,
                1,
                1
            ],
            "min" : [
                -0.866025447845459,
                -1,
                -1
            ],
            "type" : "VEC3"
        },
        {
            "bufferView" : 5,
            "componentType" : 5126,
            "count" : 26,
            "type" : "VEC3"
        },
        {
            "bufferView" : 6,
            "componentType" : 5126,
            "count" : 26,
            "type" : "VEC2"
        },
        {
            "bufferView" : 7,
            "componentType" : 5123,
            "count" : 60,
            "type" : "SCALAR"
        },
        {
            "bufferView" : 8,
            "componentType" : 5126,
            "count" : 26,
            "max" : [
                0.866025447845459,
                1,
                1
            ],
            "min" : [
                -0.866025447845459,
                -1,
                -1
            ],
            "type" : "VEC3"
        },
        {
            "bufferView" : 9,
            "componentType" : 5126,
            "count" : 26,
            "type" : "VEC3"
        },
        {
            "bufferView" : 10,
            "componentType" : 5126,
            "count" : 26,
            "type" : "VEC2"
        },
        {
            "bufferView" : 11,
            "componentType" : 5126,
            "count" : 205,
            "max" : [
                0.9632938504219055,
                1.1400747299194336,
                0.9794894456863403
            ],
            "min" : [
                -0.9419382810592651,
                -1.5417392253875732,
                -1.2012642621994019
            ],
            "type" : "VEC3"
        },
        {
            "bufferView" : 12,
            "componentType" : 5126,
            "count" : 205,
            "type" : "VEC3"
        },
        {
            "bufferView" : 13,
            "componentType" : 5126,
            "count" : 205,
            "type" : "VEC2"
        },
        {
            "bufferView" : 14,
            "componentType" : 5126,
            "count" : 26,
            "max" : [
                0.866025447845459,
                1,
                1
            ],
            "min" : [
                -0.866025447845459,
                -1,
                -1
            ],
            "type" : "VEC3"
        },
        {
            "bufferView" : 15,
            "componentType" : 5126,
            "count" : 26,
            "type" : "VEC3"
        },
        {
            "bufferView" : 16,
            "componentType" : 5126,
            "count" : 26,
            "type" : "VEC2"
        },
        {
            "bufferView" : 17,
            "componentType" : 5126,
            "count" : 36,
            "max" : [
                0.6354525089263916,
                0.8212431073188782,
                0.5716753005981445
            ],
            "min" : [
                -0.6186031699180603,
                -1.2491569519042969,
                -0.6345117092132568
            ],
            "type" : "VEC3"
        },
        {
            "bufferView" : 18,
            "componentType" : 5126,
            "count" : 36,
            "type" : "VEC3"
        },
        {
            "bufferView" : 19,
            "componentType" : 5126,
            "count" : 36,
            "type" : "VEC2"
        },
        {
            "bufferView" : 20,
            "componentType" : 5123,
            "count" : 120,
            "type" : "SCALAR"
        }
    ],
    "bufferViews" : [
        {
            "buffer" : 0,
            "byteLength" : 2460,
            "byteOffset" : 0
        },
        {
            "buffer" : 0,
            "byteLength" : 2460,
            "byteOffset" : 2460
        },
        {
            "buffer" : 0,
            "byteLength" : 1640,
            "byteOffset" : 4920
        },
        {
            "buffer" : 0,
            "byteLength" : 1920,
            "byteOffset" : 6560
        },
        {
            "buffer" : 0,
            "byteLength" : 312,
            "byteOffset" : 8480
        },
        {
            "buffer" : 0,
            "byteLength" : 312,
            "byteOffset" : 8792
        },
        {
            "buffer" : 0,
            "byteLength" : 208,
            "byteOffset" : 9104
        },
        {
            "buffer" : 0,
            "byteLength" : 120,
            "byteOffset" : 9312
        },
        {
            "buffer" : 0,
            "byteLength" : 312,
            "byteOffset" : 9432
        },
        {
            "buffer" : 0,
            "byteLength" : 312,
            "byteOffset" : 9744
        },
        {
            "buffer" : 0,
            "byteLength" : 208,
            "byteOffset" : 10056
        },
        {
            "buffer" : 0,
            "byteLength" : 2460,
            "byteOffset" : 10264
        },
        {
            "buffer" : 0,
            "byteLength" : 2460,
            "byteOffset" : 12724
        },
        {
            "buffer" : 0,
            "byteLength" : 1640,
            "byteOffset" : 15184
        },
        {
            "buffer" : 0,
            "byteLength" : 312,
            "byteOffset" : 16824
        },
        {
            "buffer" : 0,
            "byteLength" : 312,
            "byteOffset" : 17136
        },
        {
            "buffer" : 0,
            "byteLength" : 208,
            "byteOffset" : 17448
        },
        {
            "buffer" : 0,
            "byteLength" : 432,
            "byteOffset" : 17656
        },
        {
            "buffer" : 0,
            "byteLength" : 432,
            "byteOffset" : 18088
        },
        {
            "buffer" : 0,
            "byteLength" : 288,
            "byteOffset" : 18520
        },
        {
            "buffer" : 0,
            "byteLength" : 240,
            "byteOffset" : 18808
        }
    ],
    "buffers" : [
        {
            "byteLength" : 19048,
            "uri" : "data:application/octet-stream;base64,"
        }
    ]
}
