{
    "asset" : {
        "generator" : "Khronos glTF Blender I/O v1.7.33",
        "version" : "2.0"
    },
    "scene" : 0,
    "scenes" : [
        {
            "name" : "Scene",
            "nodes" : [
                0,
                1
            ]
        }
    ],
    "nodes" : [
        {
            "mesh" : 0,
            "name" : "Icosphere",
            "rotation" : [
                0,
                0.48388370871543884,
                0,
                0.8751324415206909
            ],
            "scale" : [
                1.6289269924163818,
                4.551761150360107,
                1.6289269924163818
            ],
            "translation" : [
                0.0018791109323501587,
                6.655035018920898,
                0.05490322411060333
            ]
        },
        {
            "mesh" : 1,
            "name" : "Cylinder",
            "scale" : [
                0.37093114852905273,
                3.2098400592803955,
                0.37093114852905273
            ],
            "translation" : [
                -0.016301006078720093,
                3.093130111694336,
                0.010466992855072021
            ]
        }
    ],
    "materials" : [
        {
            "doubleSided" : true,
            "name" : "Material.001",
            "pbrMetallicRoughness" : {
                "baseColorFactor" : [
                    0.03267841413617134,
                    0.1788775771856308,
                    0.0070290169678628445,
                    1
                ],
                "metallicFactor" : 0,
                "roughnessFactor" : 0.8833333253860474
            }
        },
        {
            "doubleSided" : true,
            "name" : "Material.002",
            "pbrMetallicRoughness" : {
                "baseColorFactor" : [
                    0.44797948002815247,
                    0.04206962138414383,
                    0.023028507828712463,
                    1
                ],
                "metallicFactor" : 0,
                "roughnessFactor" : 0.7333333492279053
            }
        }
    ],
    "meshes" : [
        {
            "name" : "Icosphere",
            "primitives" : [
                {
                    "attributes" : {
                        "POSITION" : 0,
                        "NORMAL" : 1,
                        "TEXCOORD_0" : 2
                    },
                    "indices" : 3,
                    "material" : 0
                }
            ]
        },
        {
            "name" : "Cylinder.004",
            "primitives" : [
                {
                    "attributes" : {
                        "POSITION" : 4,
                        "NORMAL" : 5,
                        "TEXCOORD_0" : 6
                    },
                    "indices" : 7,
                    "material" : 1
                }
            ]
        }
    ],
    "accessors" : [
        {
            "bufferView" : 0,
            "componentType" : 5126,
            "count" : 205,
            "max" : [
                0.8262582421302795,
                0.9245913028717041,
                0.8282575607299805
            ],
            "min" : [
                -0.9246605634689331,
                -0.9554751515388489,
                -0.9293609857559204
            ],
            "type" : "VEC3"
        },
        {
            "bufferView" : 1,
            "componentType" : 5126,
            "count" : 205,
            "type" : "VEC3"
        },
        {
            "bufferView" : 2,
            "componentType" : 5126,
            "count" : 205,
            "type" : "VEC2"
        },
        {
            "bufferView" : 3,
            "componentType" : 5123,
            "count" : 960,
            "type" : "SCALAR"
        },
        {
            "bufferView" : 4,
            "componentType" : 5126,
            "count" : 130,
            "max" : [
                1.688744306564331,
                1,
                1.682902455329895
            ],
            "min" : [
                -1.9781557321548462,
                -1.024275302886963,
                -1.9130125045776367
            ],
            "type" : "VEC3"
        },
        {
            "bufferView" : 5,
            "componentType" : 5126,
            "count" : 130,
            "type" : "VEC3"
        },
        {
            "bufferView" : 6,
            "componentType" : 5126,
            "count" : 130,
            "type" : "VEC2"
        },
        {
            "bufferView" : 7,
            "componentType" : 5123,
            "count" : 222,
            "type" : "SCALAR"
        }
    ],
    "bufferViews" : [
        {
            "buffer" : 0,
            "byteLength" : 2460,
            "byteOffset" : 0
        },
        {
            "buffer" : 0,
            "byteLength" : 2460,
            "byteOffset" : 2460
        },
        {
            "buffer" : 0,
            "byteLength" : 1640,
            "byteOffset" : 4920
        },
        {
            "buffer" : 0,
            "byteLength" : 1920,
            "byteOffset" : 6560
        },
        {
            "buffer" : 0,
            "byteLength" : 1560,
            "byteOffset" : 8480
        },
        {
            "buffer" : 0,
            "byteLength" : 1560,
            "byteOffset" : 10040
        },
        {
            "buffer" : 0,
            "byteLength" : 1040,
            "byteOffset" : 11600
        },
        {
            "buffer" : 0,
            "byteLength" : 444,
            "byteOffset" : 12640
        }
    ],
    "buffers" : [
        {
            "byteLength" : 13084,
            "uri" : "data:application/octet-stream;base64,"
        }
    ]
}
