{
    "asset" : {
        "generator" : "Khronos glTF Blender I/O v1.7.33",
        "version" : "2.0"
    },
    "scene" : 0,
    "scenes" : [
        {
            "name" : "Scene",
            "nodes" : [
                0,
                4
            ]
        }
    ],
    "nodes" : [
        {
            "mesh" : 0,
            "name" : "Cylinder",
            "scale" : [
                0.288105845451355,
                0.288105845451355,
                0.288105845451355
            ]
        },
        {
            "mesh" : 1,
            "name" : "Cube.001",
            "rotation" : [
                -0.6903455257415771,
                0.15304593741893768,
                0.15304593741893768,
                0.6903455257415771
            ],
            "scale" : [
                0.3378644287586212,
                1.4464678764343262,
                0.12842075526714325
            ],
            "translation" : [
                -0.03418070450425148,
                -0.6426277160644531,
                -0.07329919189214706
            ]
        },
        {
            "mesh" : 2,
            "name" : "Cube.002",
            "rotation" : [
                -0.4777144193649292,
                -0.5213338136672974,
                -0.5213338136672974,
                0.4777144193649292
            ],
            "scale" : [
                0.3378644287586212,
                1.4464678764343262,
                0.12842075526714325
            ],
            "translation" : [
                -0.03418070450425148,
                -0.6426277160644531,
                -0.07329919189214706
            ]
        },
        {
            "mesh" : 3,
            "name" : "Cube.003",
            "rotation" : [
                -0.21263107657432556,
                0.6743797659873962,
                0.6743797063827515,
                0.21263107657432556
            ],
            "scale" : [
                0.33786439895629883,
                1.4464679956436157,
                0.12842075526714325
            ],
            "translation" : [
                -0.03418070450425148,
                -0.6426277160644531,
                -0.07329919189214706
            ]
        },
        {
            "children" : [
                1,
                2,
                3
            ],
            "mesh" : 4,
            "name" : "Cone",
            "rotation" : [
                0.7071067690849304,
                0,
                0,
                0.7071068286895752
            ],
            "scale" : [
                0.08309005200862885,
                0.08309005200862885,
                0.08309005200862885
            ],
            "translation" : [
                -0.0015938878059387207,
                3.1923248767852783,
                0.28766781091690063
            ]
        }
    ],
    "animations" : [
        {
            "channels" : [
                {
                    "sampler" : 0,
                    "target" : {
                        "node" : 4,
                        "path" : "translation"
                    }
                },
                {
                    "sampler" : 1,
                    "target" : {
                        "node" : 4,
                        "path" : "rotation"
                    }
                },
                {
                    "sampler" : 2,
                    "target" : {
                        "node" : 4,
                        "path" : "scale"
                    }
                }
            ],
            "name" : "ConeAction.002",
            "samplers" : [
                {
                    "input" : 18,
                    "interpolation" : "LINEAR",
                    "output" : 19
                },
                {
                    "input" : 20,
                    "interpolation" : "LINEAR",
                    "output" : 21
                },
                {
                    "input" : 18,
                    "interpolation" : "LINEAR",
                    "output" : 22
                }
            ]
        }
    ],
    "materials" : [
        {
            "doubleSided" : true,
            "name" : "Material.001",
            "pbrMetallicRoughness" : {
                "baseColorFactor" : [
                    0.9999862313270569,
                    0.9999862313270569,
                    0.9999862313270569,
                    1
                ],
                "metallicFactor" : 0.38129496574401855,
                "roughnessFactor" : 0.2633093595504761
            }
        }
    ],
    "meshes" : [
        {
            "name" : "Cylinder",
            "primitives" : [
                {
                    "attributes" : {
                        "POSITION" : 0,
                        "NORMAL" : 1,
                        "TEXCOORD_0" : 2
                    },
                    "indices" : 3,
                    "material" : 0
                }
            ]
        },
        {
            "name" : "Cube.001",
            "primitives" : [
                {
                    "attributes" : {
                        "POSITION" : 4,
                        "NORMAL" : 5,
                        "TEXCOORD_0" : 6
                    },
                    "indices" : 7,
                    "material" : 0
                }
            ]
        },
        {
            "name" : "Cube.003",
            "primitives" : [
                {
                    "attributes" : {
                        "POSITION" : 8,
                        "NORMAL" : 9,
                        "TEXCOORD_0" : 10
                    },
                    "indices" : 7,
                    "material" : 0
                }
            ]
        },
        {
            "name" : "Cube.004",
            "primitives" : [
                {
                    "attributes" : {
                        "POSITION" : 11,
                        "NORMAL" : 12,
                        "TEXCOORD_0" : 13
                    },
                    "indices" : 7,
                    "material" : 0
                }
            ]
        },
        {
            "name" : "Cone.001",
            "primitives" : [
                {
                    "attributes" : {
                        "POSITION" : 14,
                        "NORMAL" : 15,
                        "TEXCOORD_0" : 16
                    },
                    "indices" : 17,
                    "material" : 0
                }
            ]
        }
    ],
    "accessors" : [
        {
            "bufferView" : 0,
            "componentType" : 5126,
            "count" : 370,
            "max" : [
                0.6291503310203552,
                11.479759216308594,
                0.7039082050323486
            ],
            "min" : [
                -0.6291503310203552,
                -0.632615864276886,
                -1.1817626953125
            ],
            "type" : "VEC3"
        },
        {
            "bufferView" : 1,
            "componentType" : 5126,
            "count" : 370,
            "type" : "VEC3"
        },
        {
            "bufferView" : 2,
            "componentType" : 5126,
            "count" : 370,
            "type" : "VEC2"
        },
        {
            "bufferView" : 3,
            "componentType" : 5123,
            "count" : 618,
            "type" : "SCALAR"
        },
        {
            "bufferView" : 4,
            "componentType" : 5126,
            "count" : 24,
            "max" : [
                1,
                20.52568817138672,
                2.6337528228759766
            ],
            "min" : [
                -1,
                0.2066478729248047,
                0.6337528228759766
            ],
            "type" : "VEC3"
        },
        {
            "bufferView" : 5,
            "componentType" : 5126,
            "count" : 24,
            "type" : "VEC3"
        },
        {
            "bufferView" : 6,
            "componentType" : 5126,
            "count" : 24,
            "type" : "VEC2"
        },
        {
            "bufferView" : 7,
            "componentType" : 5123,
            "count" : 30,
            "type" : "SCALAR"
        },
        {
            "bufferView" : 8,
            "componentType" : 5126,
            "count" : 24,
            "max" : [
                1,
                20.52568817138672,
                2.6337528228759766
            ],
            "min" : [
                -1,
                0.2066478729248047,
                0.6337528228759766
            ],
            "type" : "VEC3"
        },
        {
            "bufferView" : 9,
            "componentType" : 5126,
            "count" : 24,
            "type" : "VEC3"
        },
        {
            "bufferView" : 10,
            "componentType" : 5126,
            "count" : 24,
            "type" : "VEC2"
        },
        {
            "bufferView" : 11,
            "componentType" : 5126,
            "count" : 24,
            "max" : [
                1,
                20.52568817138672,
                2.6337528228759766
            ],
            "min" : [
                -1,
                0.2066478729248047,
                0.6337528228759766
            ],
            "type" : "VEC3"
        },
        {
            "bufferView" : 12,
            "componentType" : 5126,
            "count" : 24,
            "type" : "VEC3"
        },
        {
            "bufferView" : 13,
            "componentType" : 5126,
            "count" : 24,
            "type" : "VEC2"
        },
        {
            "bufferView" : 14,
            "componentType" : 5126,
            "count" : 32,
            "max" : [
                1,
                1,
                1
            ],
            "min" : [
                -1,
                -1,
                -1
            ],
            "type" : "VEC3"
        },
        {
            "bufferView" : 15,
            "componentType" : 5126,
            "count" : 32,
            "type" : "VEC3"
        },
        {
            "bufferView" : 16,
            "componentType" : 5126,
            "count" : 32,
            "type" : "VEC2"
        },
        {
            "bufferView" : 17,
            "componentType" : 5123,
            "count" : 42,
            "type" : "SCALAR"
        },
        {
            "bufferView" : 18,
            "componentType" : 5126,
            "count" : 2,
            "max" : [
                1.6666666666666667
            ],
            "min" : [
                0
            ],
            "type" : "SCALAR"
        },
        {
            "bufferView" : 19,
            "componentType" : 5126,
            "count" : 2,
            "type" : "VEC3"
        },
        {
            "bufferView" : 20,
            "componentType" : 5126,
            "count" : 41,
            "max" : [
                1.6666666666666667
            ],
            "min" : [
                0
            ],
            "type" : "SCALAR"
        },
        {
            "bufferView" : 21,
            "componentType" : 5126,
            "count" : 41,
            "type" : "VEC4"
        },
        {
            "bufferView" : 22,
            "componentType" : 5126,
            "count" : 2,
            "type" : "VEC3"
        }
    ],
    "bufferViews" : [
        {
            "buffer" : 0,
            "byteLength" : 4440,
            "byteOffset" : 0
        },
        {
            "buffer" : 0,
            "byteLength" : 4440,
            "byteOffset" : 4440
        },
        {
            "buffer" : 0,
            "byteLength" : 2960,
            "byteOffset" : 8880
        },
        {
            "buffer" : 0,
            "byteLength" : 1236,
            "byteOffset" : 11840
        },
        {
            "buffer" : 0,
            "byteLength" : 288,
            "byteOffset" : 13076
        },
        {
            "buffer" : 0,
            "byteLength" : 288,
            "byteOffset" : 13364
        },
        {
            "buffer" : 0,
            "byteLength" : 192,
            "byteOffset" : 13652
        },
        {
            "buffer" : 0,
            "byteLength" : 60,
            "byteOffset" : 13844
        },
        {
            "buffer" : 0,
            "byteLength" : 288,
            "byteOffset" : 13904
        },
        {
            "buffer" : 0,
            "byteLength" : 288,
            "byteOffset" : 14192
        },
        {
            "buffer" : 0,
            "byteLength" : 192,
            "byteOffset" : 14480
        },
        {
            "buffer" : 0,
            "byteLength" : 288,
            "byteOffset" : 14672
        },
        {
            "buffer" : 0,
            "byteLength" : 288,
            "byteOffset" : 14960
        },
        {
            "buffer" : 0,
            "byteLength" : 192,
            "byteOffset" : 15248
        },
        {
            "buffer" : 0,
            "byteLength" : 384,
            "byteOffset" : 15440
        },
        {
            "buffer" : 0,
            "byteLength" : 384,
            "byteOffset" : 15824
        },
        {
            "buffer" : 0,
            "byteLength" : 256,
            "byteOffset" : 16208
        },
        {
            "buffer" : 0,
            "byteLength" : 84,
            "byteOffset" : 16464
        },
        {
            "buffer" : 0,
            "byteLength" : 8,
            "byteOffset" : 16548
        },
        {
            "buffer" : 0,
            "byteLength" : 24,
            "byteOffset" : 16556
        },
        {
            "buffer" : 0,
            "byteLength" : 164,
            "byteOffset" : 16580
        },
        {
            "buffer" : 0,
            "byteLength" : 656,
            "byteOffset" : 16744
        },
        {
            "buffer" : 0,
            "byteLength" : 24,
            "byteOffset" : 17400
        }
    ],
    "buffers" : [
        {
            "byteLength" : 17424,
            "uri" : "data:application/octet-stream;base64,"
        }
    ]
}
